<svg xmlns="http://www.w3.org/2000/svg" width="1357.378" height="712.439" viewBox="0 0 1357.378 712.439">
  <defs>
    <style>
      .cls-1 {
        fill: #fff;
        fill-rule: evenodd;
      }
    </style>
  </defs>
  <path id="Shape_316_1" data-name="Shape 316 1" class="cls-1" d="M1677.2,644.492c-1.47-.264-1.36-0.172-2.13-0.709C1676.55,644.046,1676.44,643.954,1677.2,644.492Zm-2.13.709h-1.41c-4.2,3.814-8.9,2.387-14.19,4.962-2.5,1.219-5.1,4.911-7.8,6.38q-12.4,5.316-24.82,10.633c-11.66,7.111-20.38,17.738-31.2,25.52-8.54,6.14-16.73,10.662-24.11,17.722v1.418h4.25c3.96-2.545,9.73-2.408,14.19-4.253,6.05-2.5,12.77-6.587,19.14-8.507l9.93-.709q14.19-3.9,28.37-7.8c4.23-1.229,22.32-4.494,26.24-2.126-21.28,1.791-38.03,13.27-54.61,20.558-12.21,5.365-23.99,8.826-36.17,14.177-9.42,4.145-19.1,10.22-28.36,14.178l-17.02,4.962c-8.66,3.766-17.6,9.4-25.53,14.178-5.35,3.222-11.8,3.838-17.02,7.089-5.68,3.537-10.15,7.752-17.02,10.634v-3.545c-4.21-6.332,2.52-31.618,4.25-36.153,7.33-19.176,19.58-34.113,30.5-49.623,8.16-11.6,14.1-23.615,26.24-31.191v2.127c-3.32,2.816-3.11,8.422-4.97,12.76-4.9,11.427-11.09,21.039-11.34,37.571,2.51,1.582,3.81,2.2,8.51,2.127,2.67-1.786,6.47-1.846,9.22-3.545,3.72-2.3,6.97-6.174,10.63-8.506,9.58-6.108,19.86-11.826,29.79-17.014,5.2-2.718,10.59-4.046,15.6-7.089,10.38-6.31,21.92-13.444,33.33-18.431,7.53-3.293,16.36-4.9,24.82-7.089,4.7-1.217,11.19.23,14.89-2.126h5.67V645.2Zm-279.4,159.5c-10.78,6.825-22.2,11.871-32.62,19.14-13.71,9.556-26.58,21.084-41.84,29.064-49.82,26.048-117.5,35.039-176.58,51.749-23.11,6.538-47.16,7.747-68.08,16.3-16.51,6.753-38.34,18.743-48.22,31.9-6.76,8.985-14.12,23.809-26.24,26.938-10.987,2.836-23.382-17.563-27.66-23.394-13.648-18.6-37.51-30.979-61.7-38.989-18.529-6.136-38.035-7.236-57.441-12.76C802.394,889.6,745.8,881.272,697.86,861.412c-38.6-15.99-65.7-43.786-101.409-62.382-8.874-4.621-20.16-8.547-29.784-11.343-5.16-1.5-15.234-.362-19.147-2.835h1.418c8.829-7.089,27.407-7.439,40.422-4.253l19.856,2.126a120.517,120.517,0,0,1,25.53,11.342c8.9,5.406,27.688,19.542,39.712,19.849,2.7-2.192,6.538-2.782,8.51-5.671,2.826-4.139,2.869-9.2,4.964-14.178,4.4-10.459,9.721-21.88,13.474-33.317q1.064-6.38,2.128-12.76c1.646-6.384,4.086-18.3,2.127-26.938-1.8-7.953-1.364-17.847-3.546-26.229-0.984-3.78-2.7-5.424-2.836-10.634,15.446,9.491,18.034,38.916,22.693,58.838V756.5c0.284,1.192,1.881,4.128,2.127,4.962,0.86,2.921-.317,8.085-0.709,9.925-2.113,9.92.245,24.055,2.836,30.482,3.474,1.609,6.033,2.4,9.929,2.127,9.737-10.363,31.945-11.348,51.768-11.342v0.709h-0.709v0.708c-9.932,5.627-19.662,10.457-28.366,17.014-10.713,8.069-17.889,20.773-28.367,29.064v0.709h0.71c5.981,8.3,23.351,6.948,34.748,9.925,39.585,10.337,83.5,8.739,98.573-23.394a2.435,2.435,0,0,1,1.418.709c1.75,0.918.483-.3,1.418,1.418,5.055,6.534,1.735,16.654,3.546,24.811,8.227,5.5,16.7,12.831,26.239,17.013,21.269,9.33,44.042,13.832,67.369,21.267,6.42,2.046,31.185,10.433,39.008,8.507,23.76-5.853,47.92-11.87,69.49-19.849,7.26-2.687,14.22-3.471,21.28-6.38,7.91-3.261,15.22-7.844,21.98-12.051,4.88-3.039,10.76-4.043,12.77-9.925,3.25-4.357-.88-8.654,0-13.469l3.54-11.342a2.418,2.418,0,0,0,1.42-.709,2.452,2.452,0,0,1,1.42.709c2.22,2.4,3,5.806,4.96,8.507,3.5,4.807,10.39,9.725,15.6,12.76,20.71,12.049,59.09,6.4,81.56.709,11.29-2.862,26.27-1.59,31.91-9.925-12.04-9.249-20.3-23.476-32.62-32.609-6.05-4.481-21.01-9.3-24.82-14.886h14.18c4.12,2.8,11.18-.16,17.02,1.417,2.91,0.787,6.65,3.412,9.22,4.254h5.67c3.2,1.477,2.96,4.808,7.8,5.671,1.57,1,6.5-1.128,7.8-2.836,3.42-4.643,4.62-21.244,2.84-29.773-0.38-1.834-1.58-7.011-.71-9.925,0.25-.84,1.84-3.765,2.13-4.962V743.027c3.59-15.161,6.06-33.212,12.05-46.786,2.25-5.085,6.77-8.019,9.93-12.052h0.71v4.963c-4.58,3.915-4.05,24.1-5.67,31.9-5.59,26.849,9.59,55.392,17.02,73.015,4.57,10.86,4.1,20.069,19.85,19.849,4.56-6.136,16.11-8.67,22.7-12.76,10.68-6.63,23.11-14.51,36.16-18.431l19.86-2.126c5.52-1.354,15.73-4.078,23.4-2.127,6.47,1.644,11.95,4.869,18.44,6.38v0.709C1429.54,784.922,1409.91,795.685,1395.67,804.7ZM570.922,959.948c5.932-9.54,14.7-18,21.274-26.938,19.733-26.828,39.255-53.154,85.808-53.167-0.273,26.794,16.157,55.573,24.82,75.142,12.084,27.3,23.259,54.035,38.3,78.685,8.773,14.39,18.22,29,26.948,43.24,3,4.89,4.109,9.99,7.091,14.89,4.508,7.41,8.986,15.69,14.183,22.69,3.082,4.14,9.491,6.93,11.347,12.05h-1.419c-1.9-1.73-4.933-2.05-7.091-3.55-9.107-6.31-26.257-17.79-32.621-26.23-4.6-6.09-10.7-10.67-14.892-16.3-5.258-7.05-9.609-14.24-14.893-21.27-2.127-1.65-4.255-3.31-6.382-4.96-4.377-5.87-7.283-12.33-11.347-18.43-9.289-13.96-19.548-28.1-28.366-42.534-4.622-7.569-6.262-16.394-9.928-24.812-2.416-5.548-6.836-10.824-9.219-16.3-4.439-10.209-7.293-21.3-11.346-31.191-21.183,12.955-32.889,31.546-46.095,52.458C596.173,990.7,583.773,1008.43,575.177,1028c-16.093,36.64-29.7,76.85-42.55,116.26l-3.545,20.56c-4.947,17.44-7.756,39.89-13.474,57.42-2.2,6.75-2.277,16.77-6.383,21.97v-1.42c-3.613-5.52-2.839-26.91-2.836-36.15,0.006-20.31.648-47.08,4.964-64.51v-9.21c0.929-4.08,1.738-9.74,2.836-13.47,5.405-18.35,6.979-37.21,12.765-54.59,10.881-32.67,23.773-68.176,40.422-95.7C569.122,966.278,569.159,962.782,570.922,959.948ZM521.281,774.219c-2.562-1.925-5.732-2.5-8.51-4.254-4.852-3.063-9.283-7.445-14.892-9.924-3.467-1.533-6.8-1.659-9.928-3.545-7.939-4.779-16.872-10.4-25.53-14.178l-17.02-4.962c-5.157-2.2-10.47-6.24-15.6-8.506-19.806-8.749-40.222-17-59.569-25.521-9.859-4.341-19.649-8.358-29.784-12.051-4.344-1.582-10.805-.941-14.184-3.544,17.888-.387,32.435,4.3,46.1,8.507l20.565,3.544c10.905,4.357,21.1,11.489,35.458,12.051v-1.418c-8.517-7.74-18.2-13.559-27.657-20.557-9.5-7.027-17.281-16.349-27.657-22.685-6.334-3.867-13.6-5.45-20.566-8.507-4.414-1.938-8.525-6.795-12.055-8.506-5.872-2.846-11.372-1.611-15.6-5.671,33.536-.5,57.67,14.827,78.716,27.646,11.358,6.918,23.62,10.9,34.749,17.723,11.263,6.9,19.591,18.069,36.876,18.431,1.582-2.512,2.2-3.809,2.127-8.507q-1.771-7.443-3.545-14.887c-3.992-9.736-10.555-20.155-12.765-31.191h0.709c3.588,5.175,10.353,8.313,14.183,13.469,5.947,8.007,10.547,16.6,16.311,24.811,16.69,23.793,31.426,41.47,29.784,82.232h-0.709ZM324.845,644.492c-1.472-.264-1.365-0.172-2.127-0.709C324.19,644.046,324.082,643.954,324.845,644.492Zm15.6,457.938c4.649-14.18,5.3-28.33,9.928-42.53,8.854-27.15,14.612-56.47,22.693-85.066q1.418-10.278,2.836-20.557V933.719c0-18.742-3.57-45.392-12.764-54.585-5.41-5.408-26.355-11.217-26.948-19.14H336.9c3.776,3.5,10.262,4.482,15.6,6.38,40.255,14.311,51.685-24.565,65.952-47.495,2.414-3.881,4.611-17.214,7.8-19.14v0.708c2.194,2.938,1.783,10.6.709,14.887-2.789,11.146-2.989,27.976-5.673,40.407-1.891,8.76,2.683,17.257,4.964,22.684,8.2,19.5,16.121,21.863,34.04,31.192,4,2.08,6.563,5.506,12.055,6.38v2.126c-12.1-1.418-27.883-13.552-43.258-7.8-2.813,1.053-4.78,4.167-7.092,5.672-4.255,2.77-9.451,3.452-13.474,6.38-2.927,2.129-4.328,6.132-6.382,9.215-5.5,8.258-11.943,17.781-15.6,27.647-1.888,5.092-1.652,9.089-3.546,14.178-17.765,47.713-30.229,103.653-46.095,153.123q-1.064,7.44-2.128,14.88c-2.731,9.77-5.47,20.46-8.51,29.78-1.82,5.58-1.644,12.85-4.964,17.01-0.267-18.09,5.944-35.45,10.638-49.62C335.873,1126.71,336.885,1113.3,340.447,1102.43Zm341.1,95c3.6,2.32,12.038-.01,17.019.7,12.477,1.79,28.75-.18,39-2.83q10.281-1.425,20.565-2.84c11.336-2.93,23.8-4.88,35.458-7.79,9.436-2.37,17.831-1.84,26.239-4.97,10.218-3.8,22.307-8.95,31.2-14.88,4.5-3,7.6-8.28,12.055-11.35,1.885-1.29,4.637-1.43,6.383-2.83,0.709,0.24,1.418.47,2.127,0.71,0.663,9.12-2.083,13.92-4.964,20.56-4.137,9.52-8.206,20.11-16.311,25.52-2.394,1.59-4.76.97-7.8,2.12-4.97,1.89-10.537,5.74-15.6,7.8-14.555,5.93-31.022,8.25-47.513,12.05-7.811,1.8-16.575.52-24.111,2.13-4.177.89-11.114-.04-14.183-0.71q-8.51-.36-17.02-0.71c-9.792-2.3-19.652-4.58-29.075-7.09-10.307-2.74-21.346-.9-21.275-14.18a2.525,2.525,0,0,0,.709-1.41h7.092Zm217-205.582c-2.641-4.035-6.28-6.533-7.8-12.051,9.814,3.552,15.5,12.793,21.275,20.553,2.879,3.88,7.14,7.36,9.928,11.35,9.2,13.15,16.722,27.88,24.111,42.53h1.419c3.394-5.07,9.264-6.36,14.183-9.92,6.575-4.77,10.68-12.78,17.729-17.02v7.09q-2.129,7.44-4.255,14.89c-2.8,6.76-6.047,14.88-9.929,21.26-1.6,2.63-4.636,6.18-5.673,9.22v5.67c-0.9,1.63-4.553,2.46-5.673,4.25-2.843,4.55-2.9,10.41-5.673,14.89-5.762,9.32-12.535,18.82-19.147,27.65-1.91,2.55-5.784,3.32-7.8,5.67-7.91,9.21-13.731,18.76-24.111,25.52v-1.42c4.037-5.88,4.782-20.69,7.091-28.35,8.6-28.54,15.69-81.02,5.673-112.01C906.714,1011.77,903.907,1000.03,898.551,991.848ZM941.1,1215.86c10.1-4.25,15.332-12.73,21.275-21.27,1.339-1.92,5.275-3.08,6.382-4.96v-3.55c0.466-.87,2.253-0.73,2.837-1.41q2.127-6.39,4.255-12.76c1.551-2.68,4.375-5.52,5.673-8.51,4.421-10.17,6.486-20.77,12.056-29.77,1.511-2.45,4.074-4.65,5.673-7.09,9.359,3.54,14.8,26.89,19.149,36.86,1.5,3.44,4.92,6.62,6.38,9.92,1.63,3.68,1.11,8.51,3.55,11.35,0.58,0.68,2.37.54,2.83,1.41v3.55c1.12,1.88,5.04,3.03,6.39,4.96,12.28,17.61,20.09,25.76,50.35,23.39v0.71h-1.42c-4.66,3.65-31.59,4.23-39.72,2.13-7.03-1.82-11.82-5.85-20.56-6.38-4.27,9.89-8.94,19.48-12.06,30.48-2.42,8.54-2.32,17.22-4.25,25.52v6.38c-2.36,8.54-4.93,19.16-7.09,28.36v32.61a81.7,81.7,0,0,0-2.13,18.43h-1.419v-8.51c-6.127-10.33,1.019-29.07-2.128-42.53-2.151-9.2-4.76-19.82-7.091-28.36q-0.354-6.375-.709-12.76c-1.618-6.62-3-15.57-4.964-21.97-2.133-6.96-7.1-27.16-14.183-27.65-7.368,5.31-48.385,12.39-58.151,3.54C922.015,1218.63,933.275,1219.15,941.1,1215.86Zm136.87-78.69c-2.35-1.93-5.29-2.55-7.09-4.96-6.62-8.83-13.4-18.33-19.15-27.65-2.77-4.48-2.84-10.33-5.67-14.89-1.11-1.78-4.8-2.63-5.68-4.25v-5.67a54.862,54.862,0,0,0-4.25-8.51c-7.26-11.96-15.34-25.47-15.6-43.95h0.7c6.95,9.04,15.6,15.05,25.53,21.27,2.64,1.65,3.85,4.5,7.1,5.67v-0.71c3.71-3.75,4.22-9.45,7.09-14.18,5.46-8.98,10.88-18.86,17.02-27.64,3.85-5.52,9.48-10.26,13.47-15.6,2.03-2.716,3.3-6.139,5.67-8.507,3.18-3.161,8.02-4.024,10.64-7.8,1.75,0.917.48-.305,1.42,1.417-8.28,8.708-12.14,20.386-16.31,33.316-2.48,7.68-5.15,17.22-7.09,25.52-2.66,11.34-.76,27.77,1.42,37.57v11.35c1.82,8,1.34,18,3.54,26.93q6.03,23.745,12.06,47.5h-0.71c-3.61-5.5-10.94-8.22-14.89-13.47C1084.25,1146.03,1081.69,1140.23,1077.97,1137.17Zm70.91,27.65c8.88,5.95,21,11.07,31.21,14.88,11.83,4.43,25.26,3.58,38.29,7.09,16.72,4.51,36.8,7.18,53.9,11.34h14.89c11.36,2.53,26.12-.69,38.29-0.7v1.41c0.88,1.31.77,4.05,0.71,6.38-2.28,1.49-4.47,3.86-7.09,4.97-6.57,2.76-13.86,2.21-21.28,4.25-6.61,1.82-14.69,4-21.98,5.67-7.74,1.77-23.82,2.31-31.2.71h-11.35q-15.945-2.475-31.91-4.96c-10.6-2.96-21.99-5.63-31.91-9.93-3.76-1.62-8.28-4.93-12.06-6.38-3.03-1.16-5.41-.52-7.8-2.12-7.91-5.3-25.27-34.08-20.56-46.79C1138.87,1152.67,1141.97,1160.18,1148.88,1164.82Zm170.2-177.226c-4.39,9.958-12.1,18.756-17.73,27.646-16.63,26.23-33.29,50.9-54.6,72.31-2.58,2.59-4.17,6.28-6.39,9.21-5.34,7.09-31.77,27.37-41.13,29.78v-1.42c17.95-12.3,25.16-36.68,36.88-55.29a912.906,912.906,0,0,0,63.82-121.225c8.85-20.162,21.07-41.325,21.99-68.762,46.52-.014,66.12,26.344,85.8,53.167,6.57,8.943,15.35,17.4,21.28,26.938,1.76,2.835,1.8,6.327,3.54,9.215,21.03,34.867,34.04,78.207,47.52,120.507,1.66,5.21.72,9.88,2.12,15.6,1.77,7.19,3.94,14.54,5.68,21.98q0.345,7.44.71,14.88c2.02,8.27,1.52,20.4,3.54,29.78v12.76c3.85,17.79,1.7,43.19-1.42,59.54h-0.7c-0.8-8.43-4.68-16.76-7.1-24.1-2.89-8.79-3.44-18.52-5.67-26.94q-1.065-8.145-2.13-16.3c-1.71-5.72-3.99-12.81-5.67-19.14-1.33-5.04-.59-8.85-2.13-13.47-13.08-39.37-26.39-79.61-42.55-116.26-7.3-16.57-17.66-32.114-26.94-46.786-10.75-16.977-20.35-37.039-36.17-48.913-3.76-2.824-10.71-11.031-14.89-10.633-5.51,7.636-6.02,17.5-9.93,26.937-2.87,6.929-7.69,13.141-10.64,19.849C1323.26,975.083,1321.96,981.05,1319.08,987.594Zm259.55-123.346c1.19-4.925-.6-11.238-1.42-14.887q-0.345-10.278-.71-20.558c-1.95-8.321-6.36-19.818-2.83-29.064h1.41a49.776,49.776,0,0,0,7.8,21.266c1.34,1.88,3.92,3.41,4.97,5.671,10.55,22.861,23.24,52.681,59.57,40.407a148.882,148.882,0,0,0,16.31-7.089v3.545c-7.91,4.418-24.58,11.273-29.08,18.431-9.03,14.393-15.11,60.668-9.22,85.067,12.57,51.983,24.48,100.453,38.3,151.7,4.59,17.03,8.45,33.47,12.76,50.33,1.15,4.46,3.46,15.66,1.42,19.14-1.17-11.46-6.48-24.21-9.93-34.74-2.59-7.91-1.83-15.66-4.25-24.1q-4.605-14.175-9.22-28.35c-4.56-13.8-6.04-27.06-10.64-41.12-6.1-18.65-9.84-39.49-16.31-58.84-3.05-9.125-7.41-19-10.64-27.643-1.89-5.085-1.64-9.1-3.54-14.178-3.69-9.862-10.08-19.39-15.6-27.647-2.06-3.08-3.46-7.087-6.39-9.215-4.02-2.925-9.22-3.607-13.47-6.38-2.31-1.51-4.28-4.6-7.09-5.672-15.01-5.7-31.43,6.171-43.26,7.8V916c6.01-.9,8.86-5.042,13.47-7.089C1563.03,899.151,1572.47,889.717,1578.63,864.248Z" transform="translate(-321.312 -643.781)"/>
</svg>
